<svg xmlns="http://www.w3.org/2000/svg" width="40" height="40" fill="none"><path fill="#0ACA9B" d="M21.8928 2.1268C21.8856 2.1256 21.8784 2.1252 21.8716 2.124C21.6772 2.0976 21.4816 2.0744 21.2844 2.0564C21.218 2.0504 21.1508 2.0464 21.084 2.0412C20.9412 2.0304 20.7984 2.02 20.654 2.014C20.5536 2.0096 20.4524 2.0084 20.3516 2.0064C20.2664 2.0048 20.1824 2 20.0968 2C20.058 2 20.0192 2.002 19.9804 2.0024C19.9536 2.0028 19.9272 2.0012 19.9004 2.0016C19.8424 2.0024 19.7852 2.006 19.7276 2.0076C19.6444 2.01 19.5608 2.0124 19.4776 2.016C19.3872 2.0204 19.2976 2.026 19.2076 2.0324C19.1248 2.038 19.0424 2.0436 18.96 2.0508C18.8704 2.0588 18.7816 2.068 18.6924 2.0776C18.6112 2.0864 18.5296 2.0948 18.4488 2.1052C18.36 2.1164 18.272 2.1296 18.1836 2.1424C18.1032 2.1544 18.0228 2.1656 17.9432 2.1792C17.8552 2.194 17.7684 2.2104 17.6812 2.2268C17.602 2.2416 17.5228 2.256 17.4444 2.2724C17.3572 2.2904 17.2712 2.3104 17.1848 2.3304C17.1072 2.348 17.0296 2.3652 16.9528 2.3844C16.866 2.406 16.7804 2.4296 16.6944 2.4528C16.6188 2.4732 16.5428 2.4932 16.468 2.5148C16.3824 2.5396 16.298 2.5664 16.2136 2.5932C16.1392 2.6164 16.0648 2.6392 15.9908 2.6636C15.9068 2.6916 15.8236 2.722 15.7404 2.7516C15.6672 2.7776 15.594 2.8028 15.5216 2.83C15.4384 2.8616 15.356 2.8952 15.2732 2.9284C15.2028 2.9568 15.1316 2.984 15.0616 3.0136C14.978 3.0488 14.896 3.0864 14.8136 3.1232C14.7456 3.1536 14.6772 3.1828 14.6096 3.2144C14.5272 3.2528 14.446 3.294 14.3644 3.334C14.2988 3.3664 14.2324 3.3976 14.1672 3.4312C14.0852 3.4736 14.0044 3.518 13.9236 3.562C13.8604 3.5964 13.7964 3.6292 13.734 3.6644C13.6508 3.7112 13.5696 3.7604 13.4876 3.8092C13.4288 3.844 13.3696 3.8776 13.3116 3.9132C13.2232 3.9676 13.1368 4.0244 13.0496 4.0808C12.9996 4.1132 12.498 4.456 12.498 4.456C12.498 4.456 10.1332 2.654 9.18959 2.1624C8.24599 1.6708 7.11719 2.3556 7.11719 3.4196V5.8156V14.7312C7.11719 14.8164 7.11719 14.9 7.11719 14.98C7.11719 21.8612 12.4724 27.488 19.242 27.9288C19.2812 27.9316 19.32 27.9352 19.3592 27.9376C19.4892 27.9448 19.6204 27.9476 19.7512 27.9512C19.8324 27.9536 19.9124 27.9588 19.994 27.9596C20.0112 27.9596 20.0284 27.9588 20.0456 27.9588C20.0628 27.9588 20.08 27.96 20.0976 27.96C20.1952 27.96 20.2912 27.9548 20.3884 27.9528C20.4976 27.9504 20.6072 27.9496 20.716 27.9444C20.8296 27.9392 20.9424 27.9296 21.0552 27.9212C21.1628 27.9132 21.2704 27.9072 21.3772 27.8968C21.4892 27.886 21.6 27.8704 21.7112 27.8568C21.8172 27.8436 21.924 27.832 22.0296 27.8164C22.1396 27.8 22.248 27.7792 22.3572 27.7604C22.462 27.742 22.5668 27.7252 22.6708 27.7044C22.7796 27.6824 22.8868 27.6564 22.9944 27.632C23.0968 27.6088 23.1996 27.5868 23.3008 27.5612C23.4076 27.534 23.5128 27.5028 23.6184 27.4732C23.7188 27.4448 23.8196 27.4184 23.9188 27.388C24.0236 27.3556 24.1264 27.3196 24.23 27.2848C24.328 27.252 24.4272 27.2204 24.524 27.1852C24.6264 27.148 24.7268 27.1072 24.828 27.0676C24.924 27.03 25.0208 26.994 25.116 26.954C25.216 26.912 25.314 26.8664 25.4124 26.822C25.506 26.78 25.6004 26.7396 25.6928 26.6952C25.79 26.6488 25.8852 26.5984 25.9808 26.5496C26.0724 26.5028 26.1648 26.458 26.2548 26.4092C26.3488 26.3584 26.4404 26.304 26.5328 26.2512C26.622 26.2 26.7124 26.1504 26.8004 26.0972C26.892 26.042 26.9812 25.9832 27.0712 25.9256C27.1572 25.8708 27.2444 25.8172 27.3292 25.7604C27.418 25.7008 27.504 25.6376 27.5912 25.5756C27.6744 25.5168 27.7584 25.4592 27.84 25.3988C27.9256 25.3348 28.0088 25.2676 28.0928 25.202C28.1728 25.1392 28.2536 25.0784 28.332 25.014C28.4152 24.9456 28.4956 24.874 28.5768 24.8036C28.6528 24.738 28.7304 24.6736 28.8048 24.606C28.8848 24.5336 28.962 24.4576 29.0404 24.3832C29.1128 24.3144 29.1868 24.2468 29.2576 24.176C29.334 24.0996 29.4076 24.0204 29.482 23.942C29.5512 23.8696 29.6216 23.7988 29.6892 23.7248C29.762 23.6448 29.8316 23.562 29.9024 23.48C29.968 23.4044 30.0352 23.3304 30.0988 23.2532C30.1676 23.1704 30.2328 23.0844 30.2992 22.9996C30.3616 22.9204 30.4256 22.8428 30.486 22.762C30.5504 22.676 30.6112 22.5872 30.6736 22.4996C30.7324 22.4172 30.7928 22.336 30.8492 22.2524C30.91 22.1628 30.9668 22.0704 31.0256 21.9792C31.08 21.8944 31.136 21.8112 31.1884 21.7252C31.2448 21.6328 31.2972 21.5376 31.3516 21.4432C31.402 21.3556 31.4544 21.2692 31.5028 21.1804C31.5552 21.0836 31.604 20.9848 31.654 20.8864C31.6996 20.7976 31.7468 20.71 31.7904 20.62C31.8392 20.5192 31.8832 20.416 31.9296 20.314C31.9704 20.224 32.0132 20.1348 32.0516 20.0436C32.0956 19.9396 32.1352 19.8332 32.1768 19.728C32.2128 19.6364 32.2512 19.546 32.2852 19.4532C32.3248 19.3456 32.3596 19.2356 32.3964 19.1264C32.4276 19.0336 32.4612 18.9424 32.4904 18.8488C32.5252 18.7372 32.5552 18.6236 32.5868 18.5108C32.6132 18.4176 32.642 18.3256 32.666 18.2316C32.696 18.116 32.7204 17.9988 32.7472 17.882C32.7684 17.7884 32.7924 17.6964 32.8116 17.602C32.8364 17.482 32.8556 17.3604 32.8768 17.2392C32.8932 17.1464 32.912 17.0548 32.9264 16.9616C32.946 16.834 32.96 16.7048 32.9756 16.5764C32.9864 16.4876 33.0004 16.4 33.0092 16.3104C33.024 16.166 33.0328 16.0196 33.0424 15.8736C33.0476 15.7988 33.0556 15.7248 33.0596 15.6496C33.0704 15.4396 33.0752 15.228 33.0756 15.0152C33.0756 15.0036 33.0764 14.992 33.0764 14.98C33.0772 8.4212 28.2112 3.0016 21.8928 2.1268ZM27.674 13.3192L20.1376 20.856C19.6428 21.3504 18.9948 21.5976 18.3464 21.5976C17.698 21.5976 17.05 21.3504 16.5552 20.856L12.5204 16.8208C11.5312 15.8316 11.5312 14.228 12.5204 13.2388C13.5096 12.25 15.1132 12.25 16.1024 13.2388L18.3468 15.4832L24.0924 9.7372C25.0816 8.7484 26.6852 8.7484 27.6744 9.7372C28.6632 10.7268 28.6632 12.33 27.674 13.3192Z"/><path fill="#0ACA9B" d="M25.5415 32.1981C25.2663 32.1981 25.0431 32.4217 25.0431 32.6969L25.0435 34.5125C25.0435 35.2381 24.4531 35.8293 23.7271 35.8293C23.0015 35.8293 22.4103 35.2389 22.4103 34.5133L22.4099 32.6977L22.4095 30.7601C22.4095 30.4849 22.1859 30.2617 21.9107 30.2617C21.6355 30.2617 21.4123 30.4853 21.4123 30.7605L21.4127 32.6981L21.4131 34.5137C21.4131 35.2393 20.8227 35.8305 20.0967 35.8305C19.3711 35.8305 18.7799 35.2401 18.7799 34.5145C18.7795 33.2385 17.7411 32.2009 16.4655 32.2013C15.1899 32.2017 14.1523 33.2401 14.1523 34.5157C14.1527 35.7913 15.1911 36.8289 16.4667 36.8289C16.6423 36.8289 16.8175 36.8089 16.9875 36.7701C17.2559 36.7085 17.4235 36.4409 17.3615 36.1725C17.2999 35.9049 17.0351 35.7357 16.7639 35.7985C16.6671 35.8205 16.5671 35.8321 16.4667 35.8321C15.7411 35.8321 15.1499 35.2417 15.1499 34.5161C15.1499 33.7901 15.7403 33.1993 16.4659 33.1989C17.1919 33.1989 17.7827 33.7893 17.7831 34.5153C17.7835 35.7909 18.8219 36.8285 20.0975 36.8285C20.8335 36.8285 21.4887 36.4817 21.9127 35.9445C22.3371 36.4813 22.9923 36.8277 23.7279 36.8277C25.0039 36.8273 26.0415 35.7889 26.0411 34.5133L26.0407 32.6977C26.0399 32.4213 25.8167 32.1981 25.5415 32.1981Z"/><path fill="#0ACA9B" d="M23.952 37.543C23.6744 37.543 23.4492 37.7682 23.4492 38.0458C23.4492 38.3234 23.6744 38.5486 23.952 38.5486C24.2296 38.5486 24.4548 38.3234 24.4548 38.0458C24.4548 37.7678 24.2296 37.543 23.952 37.543Z"/></svg>