<svg width="24" height="24" viewBox="0 0 24 24" fill="none" xmlns="http://www.w3.org/2000/svg">
<path fill-rule="evenodd" clip-rule="evenodd" d="M2.82812 5.16016C2.82812 4.74594 3.16391 4.41016 3.57812 4.41016H17.4182C19.4924 4.41016 21.1682 6.08594 21.1682 8.16016V11.4801C21.1682 11.8944 20.8324 12.2301 20.4182 12.2301C20.004 12.2301 19.6682 11.8944 19.6682 11.4801V8.16016C19.6682 6.91437 18.664 5.91016 17.4182 5.91016H3.57812C3.16391 5.91016 2.82812 5.57437 2.82812 5.16016Z" fill="#FFFFFF"/>
<path fill-rule="evenodd" clip-rule="evenodd" d="M7.26846 1.46967C7.56135 1.76257 7.56135 2.23744 7.26845 2.53033L4.63878 5.15998L7.26846 7.78968C7.56135 8.08258 7.56135 8.55745 7.26845 8.85034C6.97556 9.14324 6.50068 9.14323 6.20779 8.85034L3.04779 5.6903C2.7549 5.3974 2.7549 4.92253 3.0478 4.62964L6.2078 1.46967C6.50069 1.17678 6.97557 1.17678 7.26846 1.46967Z" fill="#FFFFFF"/>
<path fill-rule="evenodd" clip-rule="evenodd" d="M3.57812 11.7695C3.99234 11.7695 4.32812 12.1053 4.32812 12.5195V15.8395C4.32812 17.0853 5.33234 18.0895 6.57812 18.0895H20.4182C20.8324 18.0895 21.1682 18.4253 21.1682 18.8395C21.1682 19.2537 20.8324 19.5895 20.4182 19.5895H6.57812C4.50391 19.5895 2.82812 17.9137 2.82812 15.8395V12.5195C2.82812 12.1053 3.16391 11.7695 3.57812 11.7695Z" fill="#FFFFFF"/>
<path fill-rule="evenodd" clip-rule="evenodd" d="M16.7314 15.1493C17.0243 14.8565 17.4992 14.8565 17.7921 15.1494L20.9521 18.3095C21.2449 18.6024 21.2449 19.0772 20.952 19.3701L17.792 22.53C17.4991 22.8229 17.0243 22.8229 16.7314 22.53C16.4385 22.2371 16.4385 21.7622 16.7314 21.4693L19.3611 18.8398L16.7314 16.21C16.4385 15.9171 16.4385 15.4422 16.7314 15.1493Z" fill="#FFFFFF"/>
</svg>
