<svg width="24" height="24" viewBox="0 0 24 24" fill="none" xmlns="http://www.w3.org/2000/svg">
<path fill-rule="evenodd" clip-rule="evenodd" d="M16.4518 6.76183C15.8004 6.75468 15.1861 7.08482 14.824 7.62791L8.43404 17.2079C8.434 17.2079 8.43407 17.2078 8.43404 17.2079C7.79266 18.1698 6.70658 18.7418 5.54999 18.7418L5.54705 18.7418L2.99706 18.7318C2.58285 18.7302 2.24838 18.3931 2.25001 17.9789C2.25163 17.5647 2.58873 17.2302 3.00294 17.2319L5.54999 17.2418C5.55044 17.2418 5.5509 17.2418 5.55135 17.2418C6.21418 17.2414 6.82757 16.9134 7.18596 16.3758L13.576 6.79586C13.5759 6.79591 13.576 6.79581 13.576 6.79586C14.2134 5.83976 15.298 5.24997 16.4656 5.2619C16.4665 5.26191 16.4674 5.26191 16.4682 5.26192L21.0133 5.2819C21.4275 5.28372 21.7618 5.62098 21.76 6.03519C21.7582 6.4494 21.4209 6.7837 21.0067 6.78188L16.4567 6.76187L16.4518 6.76183Z" fill="#1ED760"/>
<path fill-rule="evenodd" clip-rule="evenodd" d="M21.5303 17.4501C21.8232 17.743 21.8232 18.2179 21.5303 18.5108L19.5303 20.5108C19.2374 20.8037 18.7626 20.8037 18.4697 20.5108C18.1768 20.2179 18.1768 19.743 18.4697 19.4501L20.4697 17.4501C20.7626 17.1572 21.2374 17.1572 21.5303 17.4501Z" fill="#1ED760"/>
<path fill-rule="evenodd" clip-rule="evenodd" d="M18.4697 15.4697C18.7626 15.1768 19.2374 15.1768 19.5303 15.4697L21.5303 17.4697C21.8232 17.7626 21.8232 18.2374 21.5303 18.5303C21.2374 18.8232 20.7626 18.8232 20.4697 18.5303L18.4697 16.5303C18.1768 16.2374 18.1768 15.7626 18.4697 15.4697Z" fill="#1ED760"/>
<path fill-rule="evenodd" clip-rule="evenodd" d="M8.41914 6.68262C8.41906 6.68252 8.41921 6.68273 8.41914 6.68262L9.49866 8.18194C9.74069 8.51809 9.66439 8.9868 9.32824 9.22882C8.99209 9.47085 8.52339 9.39455 8.28136 9.05841L7.20135 7.55841C6.8318 7.04394 6.24029 6.74298 5.61861 6.75013L5.61287 6.75019L3.00288 6.76018C2.58867 6.76177 2.25159 6.42727 2.25001 6.01306C2.24842 5.59885 2.58291 5.26178 2.99712 5.26019L5.60442 5.25019C6.72146 5.23835 7.76926 5.77811 8.41914 6.68262Z" fill="#1ED760"/>
<path fill-rule="evenodd" clip-rule="evenodd" d="M12.5086 14.7867C12.8357 14.5325 13.3068 14.5916 13.561 14.9187L14.7822 16.4903C15.1483 16.9641 15.7275 17.2485 16.3373 17.2489C16.3378 17.2489 16.3383 17.2489 16.3388 17.2489L21.0056 17.2289C21.4198 17.2271 21.757 17.5615 21.7588 17.9757C21.7606 18.3899 21.4262 18.7271 21.012 18.7289L16.342 18.7489L16.3388 18.7489C15.2695 18.7489 14.2496 18.2537 13.596 17.4084C13.5958 17.4081 13.5955 17.4078 13.5953 17.4075L12.3766 15.8391C12.1224 15.512 12.1815 15.0408 12.5086 14.7867Z" fill="#1ED760"/>
<path fill-rule="evenodd" clip-rule="evenodd" d="M18.4697 3.4892C18.7626 3.19631 19.2374 3.19631 19.5303 3.4892L21.5303 5.4892C21.8232 5.78209 21.8232 6.25697 21.5303 6.54986C21.2374 6.84275 20.7626 6.84275 20.4697 6.54986L18.4697 4.54986C18.1768 4.25697 18.1768 3.78209 18.4697 3.4892Z" fill="#1ED760"/>
<path fill-rule="evenodd" clip-rule="evenodd" d="M18.4697 8.53033C18.1768 8.23744 18.1768 7.76256 18.4697 7.46967L20.4697 5.46967C20.7626 5.17678 21.2374 5.17678 21.5303 5.46967C21.8232 5.76256 21.8232 6.23744 21.5303 6.53033L19.5303 8.53033C19.2374 8.82322 18.7626 8.82322 18.4697 8.53033Z" fill="#1ED760"/>
</svg>
